<?xml version="1.0" encoding="UTF-8"?>
<svg version="1.1" xmlns="http://www.w3.org/2000/svg" width="439" height="439">
<path d="M0 0 C144.87 0 289.74 0 439 0 C439 144.87 439 289.74 439 439 C294.13 439 149.26 439 0 439 C0 294.13 0 149.26 0 0 Z " fill="#FEFEFE" transform="translate(0,0)"/>
<path d="M0 0 C4.87804941 3.67423893 8.3512247 8.97117207 9.4375 15 C10.907041 33.35721708 9.39343332 61.64492508 -2.93359375 76.2890625 C-9.93130859 83.63918025 -15.76530554 87.04816006 -26.0625 87.5 C-31.22985382 87.36811858 -34.69000758 86.54363031 -38.9765625 83.6796875 C-41.12494508 81.40430693 -42.20644361 78.8023905 -43.5625 76 C-43.76931396 77.1960083 -43.97612793 78.3920166 -44.18920898 79.62426758 C-44.95656656 84.05826854 -45.72696673 88.49173633 -46.49829102 92.92504883 C-46.83180533 94.8445008 -47.16449248 96.76409669 -47.49633789 98.68383789 C-47.97325126 101.4419512 -48.4531293 104.19953461 -48.93359375 106.95703125 C-49.08154892 107.81649857 -49.22950409 108.67596588 -49.38194275 109.56147766 C-49.52201248 110.36208115 -49.66208221 111.16268463 -49.80639648 111.98754883 C-49.92853012 112.6914827 -50.05066376 113.39541656 -50.17649841 114.12068176 C-50.5625 116 -50.5625 116 -51.5625 119 C-53.59375 119.66015625 -53.59375 119.66015625 -56.0625 120.0625 C-58.47257019 120.42516952 -58.47257019 120.42516952 -60.5625 121 C-60.8925 121.66 -61.2225 122.32 -61.5625 123 C-59.9125 123 -58.2625 123 -56.5625 123 C-56.8925 124.32 -57.2225 125.64 -57.5625 127 C-62.1825 127 -66.8025 127 -71.5625 127 C-70.5625 121 -70.5625 121 -69.5625 119 C-71.8725 119 -74.1825 119 -76.5625 119 C-76.871875 120.134375 -77.18125 121.26875 -77.5 122.4375 C-78.5625 126 -78.5625 126 -79.5625 127 C-82.23308851 127.14115161 -84.88682238 127.04247107 -87.5625 127 C-86.2425 122.71 -84.9225 118.42 -83.5625 114 C-84.8825 114 -86.2025 114 -87.5625 114 C-86.9025 111.03 -86.2425 108.06 -85.5625 105 C-81.2725 105 -76.9825 105 -72.5625 105 C-72.46066406 103.59234375 -72.35882813 102.1846875 -72.25390625 100.734375 C-71.44053439 91.8452815 -69.92321837 83.05737754 -68.5 74.25 C-68.19251902 72.33203551 -67.88506512 70.41406667 -67.57763672 68.49609375 C-65.18911881 53.65152371 -62.70628567 38.82296648 -60.1875 24 C-60.01274139 22.96991821 -59.83798279 21.93983643 -59.65792847 20.87854004 C-59.16201918 17.9603395 -58.66361187 15.04257939 -58.1640625 12.125 C-58.01643967 11.2571991 -57.86881683 10.38939819 -57.71672058 9.49530029 C-57.5789772 8.69505432 -57.44123383 7.89480835 -57.29931641 7.0703125 C-57.18053131 6.37695801 -57.06174622 5.68360352 -56.93936157 4.96923828 C-56.55554228 2.96364338 -56.05775562 0.98102247 -55.5625 -1 C-47.6425 -1 -39.7225 -1 -31.5625 -1 C-31.5625 1.31 -31.5625 3.62 -31.5625 6 C-30.716875 5.236875 -29.87125 4.47375 -29 3.6875 C-21.06968171 -2.75931764 -9.36957788 -5.27261417 0 0 Z " fill="#ED0505" transform="translate(387.5625,181)"/>
<path d="M0 0 C7.92 0 15.84 0 24 0 C22.87519434 12.37286231 22.87519434 12.37286231 22.07958984 16.96655273 C21.90181 18.00643341 21.72403015 19.04631409 21.54086304 20.1177063 C21.34948761 21.21194916 21.15811218 22.30619202 20.9609375 23.43359375 C20.75916901 24.60969208 20.55740051 25.78579041 20.34951782 26.99752808 C19.91803973 29.51140088 19.48475547 32.02496424 19.04980469 34.53823853 C17.90710628 41.1411563 16.77652553 47.74613602 15.6484375 54.3515625 C15.53521904 55.01377871 15.42200058 55.67599491 15.30535126 56.35827827 C13.76375271 65.38365844 12.27330696 74.41585022 10.8515625 83.4609375 C10.6907016 84.48415604 10.5298407 85.50737457 10.36410522 86.56159973 C9.61979623 91.31309768 8.88443804 96.06585101 8.15771484 100.82006836 C7.89684952 102.50114547 7.63594691 104.1822168 7.375 105.86328125 C7.26394928 106.60746307 7.15289856 107.3516449 7.03848267 108.11837769 C6.37782308 112.34941822 5.37589115 115.87232655 4 120 C-3.59 120 -11.18 120 -19 120 C-19 114 -19 114 -18 112 C-18.49628906 112.39832031 -18.99257812 112.79664063 -19.50390625 113.20703125 C-28.12994811 119.93436181 -35.02120315 122.00709894 -46 121 C-52.12844945 119.10575199 -56.08359098 114.61031362 -59.04296875 109.03515625 C-63.48447019 97.83756812 -60.86438358 84.87340757 -58.71118164 73.39404297 C-58.31084762 71.24111379 -57.94065778 69.08437864 -57.57226562 66.92578125 C-55.6642976 56.22447931 -52.63556973 45.28792435 -44 38 C-35.75740138 32.32456187 -27.92124928 30.53765576 -18 32 C-12.98688352 34.28668471 -10.4240959 37.84094841 -7 42 C-6.73521851 40.251427 -6.73521851 40.251427 -6.46508789 38.4675293 C-5.80987775 34.14534378 -5.15119367 29.82369367 -4.49145508 25.50219727 C-4.20632559 23.63124802 -3.92214022 21.76015463 -3.63891602 19.88891602 C-3.23180911 17.20029931 -2.82131712 14.5122181 -2.41015625 11.82421875 C-2.22103416 10.56782845 -2.22103416 10.56782845 -2.02809143 9.28605652 C-1.53602853 6.08656409 -1.02575837 3.0772751 0 0 Z " fill="#EB0606" transform="translate(236,147)"/>
<path d="M0 0 C13.86 0 27.72 0 42 0 C39.31144353 19.75166936 36.02578783 39.39950596 32.7677002 59.06335449 C32.00166767 63.68974721 31.23826188 68.31657332 30.47460938 72.94335938 C28.98558709 81.96265628 27.49373661 90.98148275 26 100 C30.62 100 35.24 100 40 100 C40 106.6 40 113.2 40 120 C20.86 120 1.72 120 -18 120 C-18 113.4 -18 106.8 -18 100 C-11.4 100 -4.8 100 2 100 C2.103125 98.618125 2.20625 97.23625 2.3125 95.8125 C3.49835779 82.86827764 5.49970263 70.01960074 8.17578125 57.3046875 C9.99331261 48.21477289 11.2024864 38.99623171 12.56689453 29.82983398 C13.0180043 26.88236314 13.50979639 23.94122165 14 21 C7.07 20.505 7.07 20.505 0 20 C0 13.4 0 6.8 0 0 Z " fill="#E70606" transform="translate(270,147)"/>
<path d="M0 0 C3.01710352 0.6237362 5.2910981 1.60293298 7.921875 3.1953125 C8.68870605 3.65679687 9.45553711 4.11828125 10.24560547 4.59375 C11.07205566 5.0990625 11.89850586 5.604375 12.75 6.125 C13.61383301 6.64835938 14.47766602 7.17171875 15.36767578 7.7109375 C25.49788337 13.87073696 35.59390936 20.10033221 45.58325195 26.48632812 C47.01998558 27.38619159 48.47685949 28.25678413 49.96948242 29.06054688 C53.17882942 30.85073593 53.98253869 31.95169582 55.25390625 35.46875 C55.79768217 39.82764044 55.79088933 43.93259003 54 48 C49.77882448 52.76019794 43.62450788 55.43795957 38.06982422 58.33984375 C32.88346695 61.14461784 27.91328265 64.30213389 22.91473389 67.42480469 C20.15475283 69.14288046 17.37874913 70.83475434 14.60546875 72.53125 C11.48840138 74.44067641 8.41887627 76.37091519 5.42578125 78.46875 C3 80 3 80 0 80 C-1.70410173 77.69254619 -3.20816244 75.44432809 -4.6875 73 C-5.10322266 72.33226562 -5.51894531 71.66453125 -5.94726562 70.9765625 C-6.97444224 69.32363462 -7.98847336 67.66255112 -9 66 C-5.79589918 62.41140709 -2.19092458 60.24376771 2 58 C9.64322552 53.81974497 17.10084709 49.37029452 24.5234375 44.81054688 C25.338125 44.31490234 26.1528125 43.81925781 26.9921875 43.30859375 C27.71776855 42.86314209 28.44334961 42.41769043 29.19091797 41.95874023 C31 41 31 41 33 41 C33 40.34 33 39.68 33 39 C32.36578125 38.773125 31.7315625 38.54625 31.078125 38.3125 C26.80734026 36.49145473 22.80785818 34.24993605 18.75 32 C17.87698242 31.51813232 17.00396484 31.03626465 16.10449219 30.53979492 C7.6450399 25.84698801 -0.6947568 20.95947813 -9 16 C-6.90934935 11.72426529 -4.82728373 7.50910803 -2.25 3.5 C-1.82203125 2.8296875 -1.3940625 2.159375 -0.953125 1.46875 C-0.63859375 0.9840625 -0.3240625 0.499375 0 0 Z " fill="#E1E1E1" transform="translate(55,176)"/>
<path d="M0 0 C22.44 0 44.88 0 68 0 C68 5.94 68 11.88 68 18 C45.56 18 23.12 18 0 18 C0 12.06 0 6.12 0 0 Z " fill="#FBFBFB" transform="translate(97,265)"/>
<path d="M0 0 C3.15413719 2.51043572 4.75858471 3.96625144 5.23535156 7.98266602 C5.15128709 13.58123265 4.59302661 18.9767382 3.6875 24.5 C3.56955078 25.29019531 3.45160156 26.08039063 3.33007812 26.89453125 C2.03358924 35.0191949 0.69808139 42.64153489 -6 48 C-9.75293549 49.2509785 -13.0736749 49.45902757 -17 49 C-19.22903764 47.5619112 -19.79301057 46.68101798 -20.55541992 44.17260742 C-22.17901091 36.23832063 -20.59178367 28.03616909 -19.1875 20.1875 C-19.02185547 19.17751953 -18.85621094 18.16753906 -18.68554688 17.12695312 C-17.58056997 10.80982099 -16.28513261 6.48676195 -11.875 1.6875 C-7.87642193 -0.65949147 -4.52281003 -1.05504972 0 0 Z " fill="#FBFBFB" transform="translate(368,199)"/>
<path d="M0 0 C2.8655215 2.14143811 3.8804952 3.34799589 4.53125 6.8984375 C4.45891484 14.94572447 3.61321435 22.63717178 2.25 30.5625 C2.09337891 31.50206543 1.93675781 32.44163086 1.77539062 33.40966797 C0.64347508 39.44763506 -0.71971552 44.42263363 -5.75 48.375 C-9.23621706 49.34339363 -12.4545452 49.63888393 -16 49 C-19 47.25 -19 47.25 -21 44 C-22.55649224 36.25886162 -20.49258725 27.79494959 -19.25 20.125 C-19.01518921 18.62670654 -19.01518921 18.62670654 -18.77563477 17.09814453 C-17.78388325 11.45337406 -16.7140081 7.41974092 -13 3 C-8.65706471 0.1047098 -5.18529224 -0.67216751 0 0 Z " fill="#FCFCFC" transform="translate(221,199)"/>
<path d="M0 0 C0.66 0.66 1.32 1.32 2 2 C1.67 2.99 1.34 3.98 1 5 C0.73126019 6.31731811 0.48691851 7.63972124 0.25976562 8.96484375 C0.05450256 10.15122437 0.05450256 10.15122437 -0.15490723 11.36157227 C-0.29972534 12.21162842 -0.44454346 13.06168457 -0.59375 13.9375 C-0.74533569 14.81398193 -0.89692139 15.69046387 -1.05310059 16.59350586 C-1.53760834 19.39529507 -2.01915955 22.19757922 -2.5 25 C-3.13278171 28.68796052 -3.76857101 32.37538348 -4.40625 36.0625 C-4.55106812 36.91255615 -4.69588623 37.7626123 -4.84509277 38.63842773 C-4.98193481 39.42934814 -5.11877686 40.22026855 -5.25976562 41.03515625 C-5.37888306 41.7300415 -5.49800049 42.42492676 -5.62072754 43.14086914 C-6 45 -6 45 -7 48 C-9.03125 48.66015625 -9.03125 48.66015625 -11.5 49.0625 C-13.91007019 49.42516952 -13.91007019 49.42516952 -16 50 C-16.33 50.66 -16.66 51.32 -17 52 C-15.35 52 -13.7 52 -12 52 C-12.33 53.32 -12.66 54.64 -13 56 C-17.62 56 -22.24 56 -27 56 C-26 50 -26 50 -25 48 C-27.31 48 -29.62 48 -32 48 C-32.309375 49.134375 -32.61875 50.26875 -32.9375 51.4375 C-34 55 -34 55 -35 56 C-37.67058851 56.14115161 -40.32432238 56.04247107 -43 56 C-41.68 51.71 -40.36 47.42 -39 43 C-40.32 43 -41.64 43 -43 43 C-42.34 40.03 -41.68 37.06 -41 34 C-36.71 34 -32.42 34 -28 34 C-28 32.35 -28 30.7 -28 29 C-27.67 29 -27.34 29 -27 29 C-27 30.65 -27 32.3 -27 34 C-25.35 34 -23.7 34 -22 34 C-22.99 36.97 -23.98 39.94 -25 43 C-26.32 43 -27.64 43 -29 43 C-29 44.32 -29 45.64 -29 47 C-27.35 47 -25.7 47 -24 47 C-23.87625 46.154375 -23.7525 45.30875 -23.625 44.4375 C-22.98324676 40.90785717 -21.98556471 37.44947647 -21 34 C-16.05 34 -11.1 34 -6 34 C-5.65066406 31.79699219 -5.30132812 29.59398437 -4.94140625 27.32421875 C-4.60111244 25.18943684 -4.25994907 23.0547956 -3.91870117 20.92016602 C-3.68211376 19.43723805 -3.44642979 17.95416565 -3.21166992 16.47094727 C-2.87396187 14.33831735 -2.53300199 12.20622896 -2.19140625 10.07421875 C-1.98717041 8.79119873 -1.78293457 7.50817871 -1.57250977 6.1862793 C-1 3 -1 3 0 0 Z " fill="#120A0A" transform="translate(343,252)"/>
<path d="M0 0 C0.33 0 0.66 0 1 0 C1 1.65 1 3.3 1 5 C2.65 5 4.3 5 6 5 C5.01 7.97 4.02 10.94 3 14 C1.68 14 0.36 14 -1 14 C-1 15.32 -1 16.64 -1 18 C0.32 18.33 1.64 18.66 3 19 C0.69 19 -1.62 19 -4 19 C-4.309375 20.134375 -4.61875 21.26875 -4.9375 22.4375 C-6 26 -6 26 -7 27 C-9.67058851 27.14115161 -12.32432238 27.04247107 -15 27 C-13.68 22.71 -12.36 18.42 -11 14 C-12.32 14 -13.64 14 -15 14 C-14.34 11.03 -13.68 8.06 -13 5 C-8.71 5 -4.42 5 0 5 C0 3.35 0 1.7 0 0 Z " fill="#0C0807" transform="translate(315,281)"/>
<path d="M0 0 C22.44 0 44.88 0 68 0 C68 5.94 68 11.88 68 18 C45.56 18 23.12 18 0 18 C0 12.06 0 6.12 0 0 Z M2 2 C2 6.95 2 11.9 2 17 C23.45 17 44.9 17 67 17 C67 12.05 67 7.1 67 2 C45.55 2 24.1 2 2 2 Z " fill="#5D5D5D" transform="translate(97,265)"/>
<path d="M0 0 C3.3 0 6.6 0 10 0 C9.41347648 4.48993869 8.2356462 8.22543184 6.4375 12.375 C5.98246094 13.43460937 5.52742188 14.49421875 5.05859375 15.5859375 C4.70925781 16.38257813 4.35992187 17.17921875 4 18 C5.65 18 7.3 18 9 18 C8.67 19.32 8.34 20.64 8 22 C3.38 22 -1.24 22 -6 22 C-5.37987481 19.26964299 -4.75409113 16.54079236 -4.125 13.8125 C-3.95097656 13.04357422 -3.77695312 12.27464844 -3.59765625 11.48242188 C-2.67454956 7.49938746 -1.66927814 3.75211617 0 0 Z " fill="#090506" transform="translate(273,286)"/>
<path d="M0 0 C1.37478516 0.01740234 1.37478516 0.01740234 2.77734375 0.03515625 C3.69644531 0.04417969 4.61554688 0.05320312 5.5625 0.0625 C6.27277344 0.07410156 6.98304688 0.08570313 7.71484375 0.09765625 C5.86218472 7.88484908 3.23205605 14.91030937 -0.28515625 22.09765625 C-2.92515625 22.09765625 -5.56515625 22.09765625 -8.28515625 22.09765625 C-6.5740414 0.28094194 -6.5740414 0.28094194 0 0 Z " fill="#0A0506" transform="translate(292.28515625,285.90234375)"/>
<path d="M0 0 C0.33 0 0.66 0 1 0 C0.88485851 2.04224637 0.75742674 4.08380159 0.625 6.125 C0.55539063 7.26195312 0.48578125 8.39890625 0.4140625 9.5703125 C0 13 0 13 -2 19 C-9.59 19 -17.18 19 -25 19 C-25 17.02 -25 15.04 -25 13 C-24.67 14.32 -24.34 15.64 -24 17 C-17.07 17 -10.14 17 -3 17 C-2.01 11.39 -1.02 5.78 0 0 Z " fill="#692525" transform="translate(242,248)"/>
<path d="M0 0 C7.92 0 15.84 0 24 0 C24 2.31 24 4.62 24 7 C25.98 5.35 27.96 3.7 30 2 C30.66 2.33 31.32 2.66 32 3 C28.7 5.97 25.4 8.94 22 12 C21 8 21 8 22 1 C15.07 1 8.14 1 1 1 C0.67 1.66 0.34 2.32 0 3 C0 2.01 0 1.02 0 0 Z " fill="#372A2A" transform="translate(332,180)"/>
<path d="M0 0 C0.66 0 1.32 0 2 0 C1.32829194 3.8063457 0.27253436 7.35206816 -1 11 C-2.65 11 -4.3 11 -6 11 C-6 9.68 -6 8.36 -6 7 C-4.68 7 -3.36 7 -2 7 C-1.34 4.69 -0.68 2.38 0 0 Z " fill="#E40000" transform="translate(320,288)"/>
<path d="M0 0 C0.66 0.33 1.32 0.66 2 1 C-1.3 3.97 -4.6 6.94 -8 10 C-8.33 8.68 -8.66 7.36 -9 6 C-8.34 5.01 -7.68 4.02 -7 3 C-6.67 3.66 -6.34 4.32 -6 5 C-4.02 3.35 -2.04 1.7 0 0 Z " fill="#543737" transform="translate(362,182)"/>
<path d="M0 0 C1.125 3.75 1.125 3.75 0 6 C-1.98 5.34 -3.96 4.68 -6 4 C-5.67 3.34 -5.34 2.68 -5 2 C-3.35 2 -1.7 2 0 2 C0 1.34 0 0.68 0 0 Z " fill="#E50202" transform="translate(335,293)"/>
</svg>
