<?xml version="1.0" standalone="no"?>
<!DOCTYPE svg PUBLIC "-//W3C//DTD SVG 20010904//EN"
 "http://www.w3.org/TR/2001/REC-SVG-20010904/DTD/svg10.dtd">
<svg version="1.0" xmlns="http://www.w3.org/2000/svg"
 width="529.000000pt" height="350.000000pt" viewBox="0 0 529.000000 350.000000"
 preserveAspectRatio="xMidYMid meet">

<g transform="translate(0.000000,350.000000) scale(0.100000,-0.100000)"
fill="#000000" stroke="none">
<path d="M3478 3043 l-28 -4 0 -220 0 -219 -27 7 c-47 12 -224 7 -301 -10
-206 -45 -349 -182 -407 -392 -25 -91 -31 -300 -11 -414 24 -139 66 -231 140
-306 77 -78 143 -106 267 -113 130 -7 229 26 322 108 l47 42 0 -30 c0 -16 3
-44 6 -61 l7 -31 132 0 133 0 6 32 c4 18 6 387 6 819 l-1 787 -37 6 c-40 6
-209 6 -254 -1z m-83 -697 l50 -11 3 -236 2 -236 -58 -69 c-32 -38 -80 -84
-107 -102 -44 -30 -56 -33 -99 -29 -42 4 -55 11 -87 45 -45 47 -65 110 -75
225 -15 193 53 344 181 403 55 26 110 29 190 10z"/>
<path d="M4032 3043 l-33 -4 3 -122 3 -122 163 -3 162 -2 0 -564 0 -564 -174
-4 c-96 -2 -178 -7 -183 -11 -11 -11 -17 -147 -8 -202 l6 -45 507 2 507 3 3
121 3 121 -38 7 c-21 3 -95 6 -165 6 l-127 0 -3 684 c-2 376 -7 688 -11 693
-9 8 -556 14 -615 6z"/>
<path d="M2201 2972 c-19 -18 -30 -42 -34 -74 -14 -105 -97 -212 -205 -265
l-57 -28 -305 -3 c-168 -1 -315 -5 -328 -7 -40 -9 -62 -41 -62 -87 1 -54 20
-78 87 -112 86 -43 87 -36 -84 -379 l-150 -301 -138 269 c-167 324 -183 360
-169 382 5 8 33 24 62 35 60 22 75 44 74 107 -1 37 -7 51 -28 69 l-26 23 -373
-3 c-432 -3 -415 0 -415 -93 0 -61 14 -77 102 -119 33 -15 70 -43 86 -64 16
-20 121 -217 232 -437 112 -220 227 -447 257 -504 46 -89 53 -112 53 -160 0
-98 -59 -191 -142 -225 -72 -30 -122 12 -152 127 -35 134 -82 179 -196 185
-78 5 -127 -9 -171 -45 -48 -41 -63 -79 -63 -163 -1 -63 4 -84 27 -132 61
-123 211 -198 399 -198 151 0 261 43 365 143 81 77 213 283 213 331 0 8 4 16
9 18 5 2 124 234 265 516 196 392 265 521 295 551 54 54 126 78 218 73 l72 -4
3 -401 c3 -386 4 -404 24 -448 31 -67 87 -124 152 -156 53 -26 65 -28 187 -28
113 0 138 3 194 24 36 14 81 41 102 61 35 33 39 42 39 87 0 67 -13 77 -91 70
-56 -5 -63 -3 -93 23 -53 47 -56 74 -56 439 l0 331 95 0 c100 0 147 13 159 45
3 9 6 37 6 61 0 34 -6 51 -25 69 -22 23 -31 25 -129 25 l-105 0 -3 174 c-3
169 -4 175 -27 200 -20 21 -34 26 -74 26 -40 0 -54 -5 -76 -28z m143 -25 c19
-26 21 -43 23 -195 l3 -167 92 -2 c121 -4 135 -7 154 -44 18 -37 12 -70 -18
-99 -19 -17 -35 -20 -127 -20 l-106 0 3 -367 c3 -414 4 -419 76 -456 32 -17
43 -18 73 -9 39 12 80 2 89 -23 35 -91 -175 -207 -348 -193 -161 14 -264 93
-308 236 -18 59 -20 93 -20 437 l0 373 -77 4 c-59 3 -92 0 -135 -15 -115 -39
-107 -26 -439 -690 -166 -331 -319 -627 -339 -657 -130 -191 -262 -270 -452
-270 -108 1 -161 11 -234 47 -187 91 -246 313 -111 416 36 28 109 49 142 42
11 -2 32 -6 48 -10 15 -3 45 -22 67 -41 33 -30 44 -50 67 -126 35 -117 62
-148 130 -148 117 0 210 122 201 262 -3 56 -15 85 -106 266 -330 651 -414 811
-443 846 -19 23 -56 49 -93 66 -34 15 -68 35 -76 44 -22 28 -18 82 10 106 22
19 35 20 380 20 346 0 358 -1 384 -21 55 -43 18 -126 -64 -144 -39 -9 -64 -46
-56 -82 7 -35 318 -653 328 -653 11 0 293 567 307 615 16 57 5 82 -48 112 -71
41 -91 62 -91 99 0 23 8 38 27 54 26 20 36 21 302 20 219 -1 290 2 344 14 152
35 245 130 281 287 20 82 38 101 94 97 36 -2 49 -9 66 -31z"/>
<path d="M3195 998 c-42 -145 -90 -305 -105 -356 l-28 -93 140 3 141 3 30 80
c16 44 76 200 133 347 57 147 104 270 104 273 0 3 -76 5 -168 5 l-169 0 -78
-262z"/>
<path d="M3626 1243 c-2 -10 -21 -70 -40 -134 -20 -63 -36 -121 -36 -128 0
-10 16 -11 65 -6 55 6 65 5 65 -8 0 -14 -57 -218 -104 -369 l-14 -48 122 0
122 0 85 213 85 212 70 -2 69 -3 53 138 c29 75 52 140 52 145 0 4 -132 7 -294
7 -272 0 -295 -1 -300 -17z"/>
<path d="M4235 1203 c-19 -68 -186 -622 -193 -640 -3 -10 43 -13 211 -13 l215
0 36 61 c20 33 36 63 36 65 0 3 -41 2 -90 -2 l-91 -7 20 49 19 49 69 -2 69 -2
30 57 c15 31 30 60 32 65 2 4 -30 7 -72 7 -42 0 -76 4 -76 10 0 5 8 26 17 46
l18 36 75 -6 75 -7 55 136 c30 75 57 141 58 146 2 5 -98 9 -246 9 l-251 0 -16
-57z"/>
<path d="M1150 1080 l0 -130 654 0 653 0 7 38 c8 48 8 136 0 185 l-7 37 -653
0 -654 0 0 -130z m1298 -2 l3 -108 -641 0 -640 0 0 110 0 110 638 -2 637 -3 3
-107z"/>
</g>
</svg>
